:FULLY-SPECIFIED
:FORCE-ALL-JOINTS-BE-3DOF
:DEGREES
469
root 10.879 17.3965 29.4898 3.96302 4.2599 2.83725
lfemur -8.07355 2.51365 -28.456
ltibia 22.8202 0 0
lfoot -17.4931 3.76325 0
ltoes 3.6228 0 0
rfemur -32.9003 1.0356 16.0435
rtibia 49.7187 0 0
rfoot -19.692 -10.2674 0
rtoes -15.5613 0 0
lowerback -5.03122 -3.99369 -3.98758
upperback 0.334177 -5.14983 1.89943
thorax 3.69149 -2.65966 3.7568
lowerneck -22.6679 -2.84124 -10.1326
upperneck 24.3775 -3.29681 10.08
head 12.1411 -1.10636 4.99331
lclavicle -9.24349e-15 -2.38542e-15 0
lhumerus -12.1175 -19.6735 84.8937
lradius 27.2561 0 0
lwrist 5.09789 0 0
lhand -14.7232 -24.6897 0
lfingers 7.12502 0 0
lthumb 11.4317 4.97865 0
rclavicle -9.24349e-15 -2.38542e-15 0
rhumerus -45.3748 10.5343 -86.5254
rradius 38.7962 0 0
rwrist -19.863 0 0
rhand -25.1514 -40.542 0
rfingers 7.12502 0 0
rthumb 1.36532 -70.5174 0
470
root 10.8839 17.394 29.6153 3.93056 4.36102 2.85888
lfemur -7.13891 2.43948 -28.4384
ltibia 22.0371 -0 0
lfoot -17.5381 3.77793 -4.6744e-05
ltoes 3.7119 -0 0
rfemur -33.3963 1.32963 15.8975
rtibia 48.249 -0 0
rfoot -19.81 -10.3101 -0.00175077
rtoes -15.6149 0 0
lowerback -5.03914 -4.07064 -3.96557
upperback 0.403333 -5.25324 1.89275
thorax 3.77416 -2.71336 3.72579
lowerneck -22.7104 -2.83147 -10.0785
upperneck 24.3851 -3.2919 10.0542
head 12.1504 -1.10142 4.97527
lclavicle -6.76696e-15 -2.38542e-15 0
lhumerus -11.5554 -19.8697 84.6413
lradius 27.6362 -0 0
lwrist 5.53537 0 0
lhand -14.9042 -24.7909 -0.000199222
lfingers 7.12502 0 0
lthumb 11.2572 4.88724 -0.000149797
rclavicle -6.76696e-15 -2.38542e-15 0
rhumerus -45.5007 10.4293 -86.4649
rradius 38.8774 -0 0
rwrist -20.0518 0 0
rhand -25.1411 -40.3627 0.0405878
rfingers 7.12502 0 0
rthumb 1.37506 -70.3449 0.0398349
471
root 10.8887 17.3915 29.7408 3.91492 4.43303 2.88189
lfemur -6.19466 2.36053 -28.43
ltibia 21.2176 -0 0
lfoot -17.5902 3.80122 -0.000117646
ltoes 3.91077 -0 0
rfemur -33.8456 1.60091 15.7418
rtibia 46.7065 -0 0
rfoot -19.8381 -10.2697 -0.00189983
rtoes -15.8673 0 0
lowerback -5.01922 -4.11683 -3.89961
upperback 0.417029 -5.31873 1.871
thorax 3.77476 -2.74456 3.6618
lowerneck -22.6785 -2.827 -10.044
upperneck 24.4227 -3.29385 10.0188
head 12.1576 -1.10461 4.95625
lclavicle -4.29044e-15 -2.38542e-15 0
lhumerus -11.1003 -20.0598 84.446
lradius 28.0023 -0 0
lwrist 5.89202 0 0
lhand -15.0609 -24.8907 -0.000220159
lfingers 7.12502 0 0
lthumb 11.1061 4.79588 -0.000130899
rclavicle -4.29044e-15 -2.38542e-15 0
rhumerus -45.7469 10.289 -86.4161
rradius 38.9454 -0 0
rwrist -20.2217 0 0
rhand -25.7723 -38.9527 0.0104721
rfingers 7.12502 0 0
rthumb 0.765469 -68.9347 0.0108374
472
root 10.8936 17.389 29.8663 3.91339 4.47993 2.90886
lfemur -5.23035 2.28591 -28.4299
ltibia 20.3417 -0 0
lfoot -17.6318 3.82979 -0.000163635
ltoes 4.16952 -0 0
rfemur -34.2645 1.86946 15.5726
rtibia 45.1275 -0 0
rfoot -19.8108 -10.1597 -0.00109986
rtoes -16.2013 0 0
lowerback -4.99235 -4.14304 -3.81227
upperback 0.399246 -5.35875 1.84036
thorax 3.73377 -2.76123 3.58024
lowerneck -22.6075 -2.82353 -10.0208
upperneck 24.4783 -3.29683 9.97943
head 12.1643 -1.11093 4.93788
lclavicle -1.81391e-15 -2.38542e-15 0
lhumerus -10.7212 -20.2427 84.2922
lradius 28.3587 -0 0
lwrist 6.18734 0 0
lhand -15.2082 -24.9857 -0.000113467
lfingers 7.12502 0 0
lthumb 10.9639 4.70862 -8.53372e-06
rclavicle -1.81391e-15 -2.38542e-15 0
rhumerus -46.0613 10.1295 -86.374
rradius 39.001 -0 0
rwrist -20.3679 0 0
rhand -26.8083 -36.7633 -0.0362949
rfingers 7.12502 0 0
rthumb -0.235109 -66.7404 -0.0345561
473
root 10.8985 17.3866 29.9918 3.92324 4.50571 2.94231
lfemur -4.23555 2.22472 -28.4372
ltibia 19.3897 -0 0
lfoot -17.6452 3.86028 -0.000158951
ltoes 4.43829 -0 0
rfemur -34.6691 2.1552 15.3858
rtibia 43.5483 -0 0
rfoot -19.7627 -9.9939 -0.000122926
rtoes -16.5003 0 0
lowerback -4.97939 -4.15997 -3.7261
upperback 0.373962 -5.38572 1.80692
thorax 3.69165 -2.77128 3.49643
lowerneck -22.5329 -2.81671 -10.0007
upperneck 24.5401 -3.29499 9.94183
head 12.1722 -1.11534 4.92181
lclavicle 6.62617e-16 -2.38542e-15 0
lhumerus -10.3865 -20.4166 84.164
lradius 28.7094 -0 0
lwrist 6.44085 0 0
lhand -15.3613 -25.0725 3.5381e-05
lfingers 7.12502 0 0
lthumb 10.8162 4.62951 0.000126724
rclavicle 6.62617e-16 -2.38542e-15 0
rhumerus -46.392 9.96709 -86.3339
rradius 39.0448 -0 0
rwrist -20.4855 0 0
rhand -28.0112 -34.2466 -0.0553674
rfingers 7.12502 0 0
rthumb -1.39673 -64.2161 -0.0532583
